:FULLY-SPECIFIED
:FORCE-ALL-JOINTS-BE-3DOF
:DEGREES
1529
root -4.72291 15.3391 19.7398 547.484 -16.4423 543.071
lfemur -41.2997 14.7861 -9.0006
ltibia 78.6847 0 0
lfoot -15.5539 26.2438 0
ltoes -17.4841 0 0
rfemur -36.19 -7.24003 16.7827
rtibia 62.0067 0 0
rfoot -16.9397 -21.2072 0
rtoes -26.6327 0 0
lowerback 17.1509 0.510312 3.67025
upperback -1.14313 1.6892 3.16098
thorax -10.921 0.64945 0.933291
lowerneck -4.56818 5.71914 2.79915
upperneck 1.71976 7.73505 -6.98663
head 1.80327 3.7442 -2.46626
lclavicle 4.47928e-14 3.50239e-14 0
lhumerus 15.478 -13.2365 62.5699
lradius 70.3454 0 0
lwrist -13.9817 0 0
lhand -29.5756 63.7402 0
lfingers 7.12502 0 0
lthumb -2.9073 -146.6 0
rclavicle 4.47928e-14 3.50239e-14 0
rhumerus -49.3621 32.6505 -85.7169
rradius 104.591 0 0
rwrist -52.5466 0 0
rhand 5.97992 -30.5815 0
rfingers 7.12502 0 0
rthumb 31.3002 -57.8878 0
1530
root -4.68599 15.3471 19.8079 547.532 -19.3124 543.261
lfemur -40.5013 15.5155 -7.91106
ltibia 78.5683 0 0
lfoot -15.9686 26.4639 0
ltoes -17.0757 0 0
rfemur -35.6023 -7.71752 16.6764
rtibia 61.7215 0 0
rfoot -16.9067 -21.6235 0
rtoes -27.5236 0 0
lowerback 16.9576 0.513071 3.63621
upperback -1.15641 1.66947 3.24298
thorax -10.8288 0.640957 1.05167
lowerneck -4.61567 5.53027 2.70888
upperneck 1.5543 7.45554 -6.80805
head 1.7226 3.6054 -2.40365
lclavicle 4.74433e-14 3.67657e-14 0
lhumerus 10.3356 -9.91851 65.43
lradius 67.0265 0 0
lwrist -16.3511 0 0
lhand -30.0424 65.2931 0
lfingers 7.12502 0 0
lthumb -3.35814 -137.564 0
rclavicle 4.74433e-14 3.67657e-14 0
rhumerus -51.256 31.3934 -87.2197
rradius 104.615 0 0
rwrist -53.9567 0 0
rhand 6.31093 -30.2812 0
rfingers 7.12502 0 0
rthumb 31.6161 -57.5313 0
1531
root -4.64908 15.3551 19.876 547.579 -22.1826 543.451
lfemur -39.7028 16.2449 -6.82151
ltibia 78.4519 0 0
lfoot -16.3833 26.684 0
ltoes -16.6674 0 0
rfemur -35.0145 -8.195 16.5701
rtibia 61.4363 0 0
rfoot -16.8737 -22.0398 0
rtoes -28.4145 0 0
lowerback 16.7643 0.51583 3.60217
upperback -1.1697 1.64973 3.32498
thorax -10.7366 0.632464 1.17005
lowerneck -4.66315 5.34139 2.61861
upperneck 1.38885 7.17604 -6.62948
head 1.64192 3.4666 -2.34105
lclavicle 5.00937e-14 3.85074e-14 0
lhumerus 5.19323 -6.6005 68.29
lradius 63.7075 0 0
lwrist -18.7205 0 0
lhand -30.5092 66.846 0
lfingers 7.12502 0 0
lthumb -3.80899 -128.529 0
rclavicle 5.00937e-14 3.85074e-14 0
rhumerus -53.1499 30.1364 -88.7225
rradius 104.638 0 0
rwrist -55.3669 0 0
rhand 6.64193 -29.9809 0
rfingers 7.12502 0 0
rthumb 31.9321 -57.1749 0
1532
root -4.61216 15.3632 19.9441 547.627 -25.0527 543.642
lfemur -38.9044 16.9743 -5.73197
ltibia 78.3355 0 0
lfoot -16.798 26.904 0
ltoes -16.259 0 0
rfemur -34.4268 -8.67248 16.4637
rtibia 61.151 0 0
rfoot -16.8407 -22.456 0
rtoes -29.3054 0 0
lowerback 16.571 0.518588 3.56813
upperback -1.18298 1.63 3.40698
thorax -10.6444 0.623971 1.28843
lowerneck -4.71064 5.15252 2.52834
upperneck 1.22339 6.89654 -6.4509
head 1.56125 3.32781 -2.27845
lclavicle 5.27442e-14 4.02491e-14 0
lhumerus 0.050819 -3.28249 71.1501
lradius 60.3886 0 0
lwrist -21.09 0 0
lhand -30.976 68.399 0
lfingers 7.12502 0 0
lthumb -4.25983 -119.493 0
rclavicle 5.27442e-14 4.02491e-14 0
rhumerus -55.0438 28.8793 -90.2254
rradius 104.662 0 0
rwrist -56.777 0 0
rhand 6.97294 -29.6807 0
rfingers 7.12502 0 0
rthumb 32.248 -56.8184 0
1533
root -4.57525 15.3712 20.0122 547.674 -27.9229 543.832
lfemur -38.1059 17.7037 -4.64242
ltibia 78.2191 0 0
lfoot -17.2126 27.1241 0
ltoes -15.8507 0 0
rfemur -33.839 -9.14997 16.3574
rtibia 60.8658 0 0
rfoot -16.8077 -22.8723 0
rtoes -30.1963 0 0
lowerback 16.3777 0.521347 3.53409
upperback -1.19627 1.61026 3.48897
thorax -10.5522 0.615478 1.40681
lowerneck -4.75813 4.96364 2.43807
upperneck 1.05794 6.61703 -6.27233
head 1.48058 3.18901 -2.21584
lclavicle 5.53946e-14 4.19909e-14 0
lhumerus -5.09159 0.035519 74.0101
lradius 57.0697 0 0
lwrist -23.4594 0 0
lhand -31.4429 69.9519 0
lfingers 7.12502 0 0
lthumb -4.71067 -110.458 0
rclavicle 5.53946e-14 4.19909e-14 0
rhumerus -56.9377 27.6222 -91.7282
rradius 104.686 0 0
rwrist -58.1872 0 0
rhand 7.30394 -29.3804 0
rfingers 7.12502 0 0
rthumb 32.564 -56.462 0
1534
root -4.53833 15.3792 20.0803 547.722 -30.793 544.022
lfemur -37.3075 18.4331 -3.55288
ltibia 78.1027 0 0
lfoot -17.6273 27.3442 0
ltoes -15.4423 0 0
rfemur -33.2513 -9.62745 16.2511
rtibia 60.5806 0 0
rfoot -16.7747 -23.2886 0
rtoes -31.0872 0 0
lowerback 16.1844 0.524106 3.50005
upperback -1.20955 1.59053 3.57097
thorax -10.46 0.606985 1.52519
lowerneck -4.80562 4.77477 2.3478
upperneck 0.892484 6.33753 -6.09375
head 1.39991 3.05021 -2.15324
lclavicle 5.80451e-14 4.37326e-14 0
lhumerus -10.234 3.35353 76.8702
lradius 53.7508 0 0
lwrist -25.8288 0 0
lhand -31.9097 71.5048 0
lfingers 7.12502 0 0
lthumb -5.16151 -101.422 0
rclavicle 5.80451e-14 4.37326e-14 0
rhumerus -58.8316 26.3651 -93.231
rradius 104.71 0 0
rwrist -59.5973 0 0
rhand 7.63495 -29.0801 0
rfingers 7.12502 0 0
rthumb 32.8799 -56.1055 0
1535
root -4.65266 15.3866 20.0946 548.84 -32.8849 542.441
lfemur -36.7345 18.1673 -4.33354
ltibia 76.78 0 0
lfoot -17.5075 26.8452 0
ltoes -16.6688 0 0
rfemur -33.8579 -9.88697 16.0206
rtibia 62.2371 0 0
rfoot -16.506 -22.9018 0
rtoes -29.7142 0 0
lowerback 16.2248 0.47877 3.05452
upperback -1.18359 1.44128 3.51991
thorax -10.4434 0.560771 1.76145
lowerneck -4.82521 4.43209 2.03064
upperneck 0.978906 5.89683 -5.86172
head 1.41791 2.83137 -2.03855
lclavicle 5.33784e-14 4.08928e-14 0
lhumerus -9.85819 2.21196 77.0165
lradius 53.9206 0 0
lwrist -24.6035 0 0
lhand -31.5308 69.7772 0
lfingers 7.12502 0 0
lthumb -4.79557 -93.4881 0
rclavicle 5.33784e-14 4.08928e-14 0
rhumerus -58.7404 26.4713 -93.4777
rradius 105.248 0 0
rwrist -59.4037 0 0
rhand 7.51707 -28.9336 0
rfingers 7.12502 0 0
rthumb 32.7676 -55.9812 0
1536
root -4.767 15.3939 20.1089 549.958 -34.9767 540.861
lfemur -36.1615 17.9016 -5.1142
ltibia 75.4574 0 0
lfoot -17.3877 26.3462 0
ltoes -17.8954 0 0
rfemur -34.4646 -10.1465 15.79
rtibia 63.8935 0 0
rfoot -16.2372 -22.515 0
rtoes -28.3412 0 0
lowerback 16.2652 0.433434 2.60898
upperback -1.15762 1.29202 3.46885
thorax -10.4267 0.514556 1.99772
lowerneck -4.84479 4.08941 1.71348
upperneck 1.06533 5.45612 -5.62968
head 1.43591 2.61253 -1.92387
lclavicle 4.87117e-14 3.8053e-14 0
lhumerus -9.48239 1.07039 77.1629
lradius 54.0903 0 0
lwrist -23.3782 0 0
lhand -31.1519 68.0496 0
lfingers 7.12502 0 0
lthumb -4.42962 -85.5542 0
rclavicle 4.87117e-14 3.8053e-14 0
rhumerus -58.6492 26.5775 -93.7245
rradius 105.785 0 0
rwrist -59.2102 0 0
rhand 7.39918 -28.787 0
rfingers 7.12502 0 0
rthumb 32.6553 -55.8568 0
1537
root -4.88133 15.4013 20.1232 551.076 -37.0686 539.28
lfemur -35.5885 17.6358 -5.89485
ltibia 74.1347 0 0
lfoot -17.2679 25.8472 0
ltoes -19.1219 0 0
rfemur -35.0712 -10.406 15.5595
rtibia 65.55 0 0
rfoot -15.9685 -22.1282 0
rtoes -26.9683 0 0
lowerback 16.3056 0.388098 2.16345
upperback -1.13166 1.14277 3.41778
thorax -10.4101 0.468342 2.23398
lowerneck -4.86438 3.74673 1.39633
upperneck 1.15175 5.01542 -5.39765
head 1.45391 2.39369 -1.80918
lclavicle 4.4045e-14 3.52133e-14 0
lhumerus -9.10658 -0.0711743 77.3092
lradius 54.2601 0 0
lwrist -22.153 0 0
lhand -30.7729 66.322 0
lfingers 7.12502 0 0
lthumb -4.06368 -77.6203 0
rclavicle 4.4045e-14 3.52133e-14 0
rhumerus -58.558 26.6838 -93.9712
rradius 106.323 0 0
rwrist -59.0166 0 0
rhand 7.2813 -28.6405 0
rfingers 7.12502 0 0
rthumb 32.5431 -55.7325 0
1538
root -4.99566 15.4086 20.1375 552.194 -39.1605 537.7
lfemur -35.0155 17.37 -6.67551
ltibia 72.812 0 0
lfoot -17.1481 25.3483 0
ltoes -20.3485 0 0
rfemur -35.6778 -10.6655 15.3289
rtibia 67.2065 0 0
rfoot -15.6998 -21.7414 0
rtoes -25.5953 0 0
lowerback 16.3461 0.342762 1.71792
upperback -1.1057 0.993517 3.36672
thorax -10.3934 0.422128 2.47025
lowerneck -4.88397 3.40404 1.07917
upperneck 1.23817 4.57472 -5.16561
head 1.47191 2.17485 -1.69449
lclavicle 3.93783e-14 3.23735e-14 0
lhumerus -8.73078 -1.21274 77.4556
lradius 54.4298 0 0
lwrist -20.9277 0 0
lhand -30.394 64.5944 0
lfingers 7.12502 0 0
lthumb -3.69773 -69.6864 0
rclavicle 3.93783e-14 3.23735e-14 0
rhumerus -58.4668 26.79 -94.2179
rradius 106.861 0 0
rwrist -58.823 0 0
rhand 7.16342 -28.4939 0
rfingers 7.12502 0 0
rthumb 32.4308 -55.6081 0
1539
root -5.11 15.416 20.1518 553.312 -41.2524 536.119
lfemur -34.4425 17.1043 -7.45617
ltibia 71.4893 0 0
lfoot -17.0283 24.8493 0
ltoes -21.575 0 0
rfemur -36.2844 -10.925 15.0984
rtibia 68.863 0 0
rfoot -15.431 -21.3546 0
rtoes -24.2223 0 0
lowerback 16.3865 0.297426 1.27239
upperback -1.07973 0.844263 3.31566
thorax -10.3768 0.375914 2.70651
lowerneck -4.90355 3.06136 0.762012
upperneck 1.32459 4.13402 -4.93358
head 1.48991 1.95601 -1.5798
lclavicle 3.47116e-14 2.95337e-14 0
lhumerus -8.35497 -2.35431 77.6019
lradius 54.5996 0 0
lwrist -19.7024 0 0
lhand -30.0151 62.8668 0
lfingers 7.12502 0 0
lthumb -3.33179 -61.7525 0
rclavicle 3.47116e-14 2.95337e-14 0
rhumerus -58.3756 26.8962 -94.4646
rradius 107.399 0 0
rwrist -58.6295 0 0
rhand 7.04553 -28.3474 0
rfingers 7.12502 0 0
rthumb 32.3185 -55.4838 0
1540
root -5.22433 15.4234 20.166 554.429 -43.3442 534.539
lfemur -33.8695 16.8385 -8.23683
ltibia 70.1667 0 0
lfoot -16.9085 24.3503 0
ltoes -22.8015 0 0
rfemur -36.8911 -11.1845 14.8678
rtibia 70.5194 0 0
rfoot -15.1623 -20.9678 0
rtoes -22.8493 0 0
lowerback 16.4269 0.252089 0.826853
upperback -1.05377 0.69501 3.2646
thorax -10.3601 0.329699 2.94278
lowerneck -4.92314 2.71868 0.444854
upperneck 1.41102 3.69331 -4.70154
head 1.50791 1.73717 -1.46512
lclavicle 3.00449e-14 2.66939e-14 0
lhumerus -7.97916 -3.49588 77.7483
lradius 54.7693 0 0
lwrist -18.4771 0 0
lhand -29.6362 61.1392 0
lfingers 7.12502 0 0
lthumb -2.96584 -53.8185 0
rclavicle 3.00449e-14 2.66939e-14 0
rhumerus -58.2843 27.0024 -94.7114
rradius 107.936 0 0
rwrist -58.4359 0 0
rhand 6.92765 -28.2008 0
rfingers 7.12502 0 0
rthumb 32.2062 -55.3594 0
1541
root -5.33866 15.4307 20.1803 555.547 -45.4361 532.958
lfemur -33.2965 16.5727 -9.01749
ltibia 68.844 0 0
lfoot -16.7887 23.8513 0
ltoes -24.0281 0 0
rfemur -37.4977 -11.4441 14.6373
rtibia 72.1759 0 0
rfoot -14.8936 -20.581 0
rtoes -21.4764 0 0
lowerback 16.4673 0.206753 0.38132
upperback -1.02781 0.545757 3.21353
thorax -10.3435 0.283485 3.17904
lowerneck -4.94273 2.376 0.127697
upperneck 1.49744 3.25261 -4.46951
head 1.52591 1.51833 -1.35043
lclavicle 2.53782e-14 2.38541e-14 0
lhumerus -7.60336 -4.63745 77.8946
lradius 54.9391 0 0
lwrist -17.2518 0 0
lhand -29.2573 59.4116 0
lfingers 7.12502 0 0
lthumb -2.5999 -45.8846 0
rclavicle 2.53782e-14 2.38541e-14 0
rhumerus -58.1931 27.1087 -94.9581
rradius 108.474 0 0
rwrist -58.2423 0 0
rhand 6.80977 -28.0543 0
rfingers 7.12502 0 0
rthumb 32.0939 -55.2351 0
1542
root -5.453 15.4381 20.1946 556.665 -47.528 531.378
lfemur -32.7235 16.307 -9.79814
ltibia 67.5213 0 0
lfoot -16.6689 23.3523 0
ltoes -25.2546 0 0
rfemur -38.1043 -11.7036 14.4068
rtibia 73.8324 0 0
rfoot -14.6248 -20.1942 0
rtoes -20.1034 0 0
lowerback 16.5077 0.161417 -0.0642129
upperback -1.00184 0.396503 3.16247
thorax -10.3268 0.237271 3.41531
lowerneck -4.96231 2.03332 -0.189461
upperneck 1.58386 2.81191 -4.23747
head 1.54391 1.29949 -1.23574
lclavicle 2.07115e-14 2.10144e-14 0
lhumerus -7.22755 -5.77901 78.041
lradius 55.1088 0 0
lwrist -16.0265 0 0
lhand -28.8783 57.684 0
lfingers 7.12502 0 0
lthumb -2.23396 -37.9507 0
rclavicle 2.07115e-14 2.10144e-14 0
rhumerus -58.1019 27.2149 -95.2048
rradius 109.012 0 0
rwrist -58.0488 0 0
rhand 6.69188 -27.9078 0
rfingers 7.12502 0 0
rthumb 31.9817 -55.1107 0
